<?xml version="1.0" encoding="utf-8"?>
<!-- Generator: Adobe Illustrator 24.0.1, SVG Export Plug-In . SVG Version: 6.00 Build 0)  -->
<svg version="1.1" id="Layer_1" xmlns="http://www.w3.org/2000/svg" xmlns:xlink="http://www.w3.org/1999/xlink" x="0px" y="0px"
	 viewBox="0 0 412.4 390.1" style="enable-background:new 0 0 412.4 390.1;" xml:space="preserve">
<style type="text/css">
	.st0{fill-rule:evenodd;clip-rule:evenodd;fill:#CCCCCC;}
</style>
<title>white-logo</title>
<g id="Camada_1">
	<g id="_105553302580320">
		<path class="st0" d="M206.2,390.1L0,320.2V69.9L206.2,0V390.1z M169.8,262.7L67.5,297.4L169.8,332V262.7z M169.8,127.4L67.5,92.8
			l102.3-34.7V127.4z M36.4,262.1V128l133.3,45.2V217L36.4,262.1z"/>
		<path class="st0" d="M206.2,0l206.2,69.9v250.3l-206.2,69.9V0z M242.6,127.4l102.3-34.7L242.6,58.1L242.6,127.4z M242.6,262.7
			l102.3,34.7L242.6,332L242.6,262.7z M375.9,128v134.1L242.6,217v-43.8L375.9,128z"/>
	</g>
</g>
</svg>
